<?xml version="1.0" encoding="UTF-8"?>
<!DOCTYPE svg PUBLIC "-//W3C//DTD SVG 1.1//EN" "http://www.w3.org/Graphics/SVG/1.1/DTD/svg11.dtd">
<!-- Creator: CorelDRAW 2021 (64 Bit) -->
<svg xmlns="http://www.w3.org/2000/svg" xml:space="preserve" width="91.44mm" height="91.44mm" version="1.1" style="shape-rendering:geometricPrecision; text-rendering:geometricPrecision; image-rendering:optimizeQuality; fill-rule:evenodd; clip-rule:evenodd"
viewBox="0 0 9144 9144"
 xmlns:xlink="http://www.w3.org/1999/xlink"
 xmlns:xodm="http://www.corel.com/coreldraw/odm/2003">
 <defs>
  <style type="text/css">
   <![CDATA[
    .fil7 {fill:#2A346D}
    .fil6 {fill:#2C3571}
    .fil1 {fill:#2C366C}
    .fil0 {fill:#2C376F}
    .fil5 {fill:#2D366F}
    .fil9 {fill:#2E356D}
    .fil4 {fill:#D5CB45}
    .fil10 {fill:#F6FAF4}
    .fil8 {fill:#FAFBF4}
    .fil3 {fill:#FAFDFA}
    .fil2 {fill:#FBFAF9}
   ]]>
  </style>
 </defs>
 <g id="Camada_x0020_1">
  <metadata id="CorelCorpID_0Corel-Layer"/>
  <g id="_1905989303824">
   <g>
    <path class="fil0" d="M4454.3 7516.82c-24.39,-32.96 -56.48,-64.29 -36.21,-121.55 15.22,-42.97 63.28,-65.41 115.33,-47.88 84.26,28.36 90.98,192.8 -79.12,169.43zm-433.58 67.71c-74.5,5.54 -231.73,-51.88 -284.36,-91.61 -79.79,-60.19 -86.2,-165.08 -42.01,-274.24 92.82,-229.33 264.37,-171.23 471.45,-89.24 10.56,81.77 -109.57,380.83 -145.08,455.09zm1069.19 -401.29c-55.25,9.46 -254.69,90.09 -287.68,30.58 -42.77,-77.16 178.27,-96.06 229.43,-108.42 172.24,-41.58 141.85,-3.07 181.42,149.44 20.59,79.34 76.07,220.2 52.7,294.72 -54.98,36.65 -283.07,91.97 -348.24,69.87 -26.39,-112.12 162.5,-75.37 249.89,-130.17l-28.55 -92.34c-72.69,1.64 -180.07,61.41 -241.8,28.19 -45.91,-93.4 144.9,-79.62 223.79,-122.59l-30.96 -119.28zm359.95 -34.95c0,0 0,0 0,0l0 0zm-2106.58 -168.4c33.32,23.83 67.04,54.27 103.13,67.05 29.95,-21.5 65.87,-73.05 79.2,-104.97 -47.45,-23.31 -93.56,-66 -141,-96.91 -129.68,-84.49 -50.68,-115.15 -20.54,-114.12 37.46,1.3 250.9,169.2 279.06,199.13 -8.74,62.85 -76.36,139.24 -128.3,201.78 -34.14,41.11 -42.15,58.5 -73.16,99.83 -23.56,31.41 -42.15,48.34 -71.33,82.96 -68.13,-7.39 -124.76,-58.01 -173.25,-95.64 -59.25,-46.01 -140.53,-60.05 -115.54,-132.77 3.37,-2.12 8.16,-3.97 10.97,-4.71 103.35,-27.12 -52.95,-10.51 33.14,-6.72 52.46,2.3 122.25,97.1 220.11,130.1 9.57,-24.83 9.05,-22.12 22.47,-46.06 23.41,-41.73 6.8,1.09 27.08,-48.56 -0.19,-0.08 -223.32,-108.67 -178.18,-166.89 54.22,-35.05 85.25,7.29 126.14,36.5zm2827.47 63.51c-59.05,26.38 -85.78,-32.69 -126.04,-73.25 -91.48,-92.13 -320.47,-260.74 -210.54,-308.76 60.12,-26.26 166.89,118.77 219.23,166.89 32.66,30.05 216.8,170.67 117.35,215.12zm-2937.04 -459.2c47.18,62.55 -32.86,96.14 -81.69,131.11 -322.51,231.07 -262.28,253.42 -399.5,82.2 -89.15,-111.24 -106.34,-205.41 25.2,-282.96 143.96,-84.89 218.87,75.84 282.22,138.31 29.91,-16.23 52.23,-36.52 79.65,-56.6 15.58,-11.42 22.76,-21.05 44.13,-24.81 54.87,-9.66 21.52,-9.82 49.99,12.75zm2916.09 -158.74c-17.47,33.75 -61.19,89.14 -85.72,124.19 -27.9,39.87 -86.27,104.03 -110.05,31.13 -12.25,-37.54 45.85,-99.98 65.82,-129.08 148.31,-216.08 103.59,-157.61 472.81,71.46 60.67,37.65 74.07,44.51 31.76,111.31 -94.87,7.68 -251.48,-150.31 -374.62,-209.01zm260.74 -628.22c142.67,-54.63 311.78,30.63 362.87,124.03 80.18,146.65 -28.38,304.59 -131.29,339.72 -148.1,50.54 -315.35,-35.9 -364,-123.13 -58.46,-104.8 -27.42,-279.41 132.42,-340.62zm-2010.17 -1981.1c495.4,-51.99 977.08,133.76 1261.25,379.29 1176.78,1016.74 472.55,2732.31 -949.17,2847.34 -1210.65,97.97 -2155.48,-1028.94 -1734.18,-2167.71 36.84,-99.6 84.85,-195.98 135.9,-276.14 95.08,-149.33 161.22,-224.68 286.18,-340.23 276.56,-255.74 598.9,-400.44 1000.02,-442.55zm2462.79 1430.26c23.85,143.99 42.69,335.55 -112.38,364.79 -210.35,39.68 -206.14,-104.73 -209.03,-272.55 -64.33,-1.18 -138.73,8.23 -183.66,-15.54 -33.59,-116.03 115.8,-82.6 206.73,-84.51 96.9,-2.03 213.55,-14.86 298.34,7.81zm-395.72 -474.58c130.41,-19.34 153.21,56.4 117.31,152.77 -105.14,40.63 -175.53,20.77 -152.08,-117.21l34.77 -35.56zm-3572.03 -327.41c102.8,37.65 201.07,136.61 107.68,163.07 -48.61,13.76 -275.36,-162.52 -351.45,-214.52 -70.72,-48.36 -66.55,-72.97 -14.52,-137.95 86.3,-107.8 132.73,-232.36 264.74,-178.87 60.23,24.41 89.5,60.6 88.9,140.21 78.94,-16.86 139.3,16.75 229.32,71.65 -4.67,162.33 -132.95,32.39 -213.45,17.16 -45.91,21.72 -95.32,88.33 -111.22,139.25zm3381.4 -224.23c-70.14,36.36 -136.76,83.17 -202.56,127.22 -125.26,83.91 -174.46,-5.76 -81.25,-67.32 111.93,-73.9 323.73,-242.03 404.77,-208.4 32.74,119.9 -113.45,287.25 -144.57,408.13 54.6,-20.81 104.91,-61.4 152.05,-94.49 42.73,-30 108.76,-93.29 158.88,-54.02 47.68,61.11 -16.57,80.39 -61.73,110.37l-225.01 148.24c-327.63,218.18 -7.91,-347.15 -0.58,-369.73zm-537 -585.53c155.46,-49.1 301.26,68.12 323.11,184.25 33.34,177.25 -184.48,425.53 -407.53,288.85 -221.87,-135.98 -103.91,-413.62 84.42,-473.1zm-2240.09 321.71c-47.88,30.39 -121.13,77.66 -154.74,121.81 15.76,47.41 38.06,72.04 8.14,119.47 -87.79,54.38 -112.1,-118.1 -137.87,-193.61 -23.88,-69.98 -76.09,-201.71 -81.58,-272.35 56.36,-63.57 77.58,-77.56 154.17,-27.75 42.38,27.58 84.92,54.83 129.89,83.58 126.2,80.69 280.47,134.11 216.82,199.37 -59.02,39.21 -78.21,-3.8 -134.83,-30.52zm1624.35 -630.33c352.1,-98.97 436.74,427.64 131.51,510.32 -352.55,95.48 -447.15,-421.59 -131.51,-510.32zm-1068.98 298.32c0,0 0,0 0,0l0 0zm683.69 -51.37c54.18,176.32 -317.07,275.18 -424.08,50.11 -97.72,-205.45 50.19,-453.9 301.86,-383.49 178.65,49.97 145,209.69 39.26,151.86 -40.49,-22.15 -30.78,-71.79 -116.76,-73.76 -63.15,-1.45 -103.76,24.73 -123.8,64.96 -92.19,185.04 81.61,351.31 204.26,256.41 53.25,-41.19 17.2,-86.34 119.26,-66.09zm2191.76 2011.11c47.23,-782.27 -305.81,-1536.87 -919.69,-1991.72 -665.07,-492.79 -1521.17,-627.83 -2305.23,-321.86 -306.27,119.52 -418.63,207.95 -649.57,377.39 -41.53,30.49 -39.96,37.07 -77.22,69.13 -351.76,302.7 -720.99,851.81 -768.89,1559.95 -89.56,1323.97 965.47,2418.06 2216.23,2474.24 818.25,36.75 1434.57,-264.36 1953.25,-819.84 296.12,-317.15 523.03,-881.75 551.12,-1347.29z"/>
   </g>
   <path class="fil0" d="M6943.37 2986.2c-165.41,13.02 -113.03,-162.67 -65.37,-183.7 50.15,-22.13 87.27,8.13 99.77,52.52 20.69,73.49 -6.3,83.35 -34.4,131.18zm-3948.67 -440.58c92.68,-54.15 150.98,127.95 66.66,175.83 -98,55.66 -156.05,-123.62 -66.66,-175.83zm2927.86 92.58c-64.99,-79.08 -32.28,-216.41 64.13,-182.61 77.83,27.29 78.23,204.33 -64.13,182.61zm-1953.2 -302.63c28.02,31.87 56.66,56.93 48.24,114.51 -5.96,40.78 -38.06,87.13 -86.82,77.94 -71.98,-13.58 -114.07,-187.98 38.58,-192.45zm1013.98 -31.2c63.13,80.12 29.24,215.72 -66.05,185.29 -63.29,-20.22 -95.34,-205.12 66.05,-185.29zm-804.4 184.36c-46.77,-84.38 -7.64,-166.13 19.11,-270.33l138.07 -543.46c27.54,-76.88 148.54,-114.65 189.08,17.96 53.35,174.38 103.92,350.31 157.64,521.28 19.31,61.45 81.79,208.51 29.03,252.14 -98,81.03 -118.29,-115.04 -146.15,-169.62l-254.91 8.91c-20.68,91.63 -11.87,213.27 -131.87,183.12zm-1874.08 234.99c116.55,-39.23 87.51,102.77 230.67,60.8 61.84,-18.11 150.9,-92.8 106.95,-179.55 -62.28,-122.97 -351.25,69.67 -441.13,-119.98 -224.66,-474.08 542.07,-578.5 410.41,-242.79 -130.57,26.71 -95.26,-88.07 -228.86,-41.37 -95.5,33.39 -100.2,98.19 -73.59,187.17 132.8,27.98 309.2,-37.51 393.19,35.25 157.32,136.28 77.24,507.01 -216.63,518.88 -137.16,5.52 -258.71,-89.94 -181.01,-218.41zm4280.02 -64.82c43.39,-152.58 -18.73,-155.4 -171.7,-281.51 -114.63,-94.52 -154.3,-198.91 -94.19,-344.17 124.51,-300.83 589.05,-1.75 446.25,218.04 -156.96,12.94 -50.52,-248.79 -312.17,-190.22 -71.57,163.62 51.99,172.03 183.89,292.45 109.96,100.38 150.04,234.2 57.99,375.61 -82.28,126.36 -240.43,112.34 -355.71,28.74 -145.06,-105.2 -184.73,-319.87 -37.47,-318.25 49.54,54.16 49.52,297.88 283.11,219.31zm-1368.06 -153.47c-43.78,-91.3 19.57,-555.73 33.7,-705.5 7.98,-84.49 1.44,-149.92 99.37,-144.59 134.61,7.35 332.86,26.85 393.54,125.69 67.4,109.77 31.76,313.57 -72.93,364.79l14.45 26.38c13.48,23.22 -1.02,-5.84 15.55,25.31 13.67,25.67 15.76,29.04 20.21,58.96 7.78,52.13 -2.64,103.04 -1.78,156.11 0.71,43.81 14.85,109.6 -13.31,141.21 -33.02,37.05 -79.98,23.58 -103.32,-4.93 -44.37,-54.19 -1.9,-206.08 -25.4,-280.42 -23.88,-75.48 -138.34,-78.86 -226.76,-84.75 -21.58,252.58 4.96,359.38 -133.32,321.74zm-1877.21 -586c-59.89,4.49 -172.54,53.52 -204.63,4.38 -58.04,-88.89 34.23,-124.84 97.49,-137.67 99.02,-20.07 333.06,-90.28 416.34,-70.31 35.67,154.16 -21.06,141.57 -173.12,167.6 -13.93,188.79 119.7,575.73 53.26,716.13 -130.04,30.06 -111.06,-59.92 -140.45,-292.03 -15.93,-125.73 -39.7,-262.45 -48.89,-388.1zm-1214.44 1384.85c80.19,-33.88 167.87,-96.38 256.85,-143.24 91.19,-48.02 168.38,-80.49 262.65,-124.09 169.44,-78.41 380.72,-148.87 570.36,-202.85 859.02,-244.44 1867.22,-235.85 2725.27,4.68 257.04,72.04 598.11,200.26 829.87,328.23 72.4,39.96 185.37,113.7 247.42,136.79l512.87 -1197.96c-69.68,-49.72 -242.49,-108.67 -326.97,-145.27 -1394.03,-603.99 -2764.15,-731.74 -4251.87,-349.14 -184.35,47.41 -1179.77,371.65 -1343.91,496.28l517.46 1196.57z"/>
   <path class="fil1" d="M2062.19 5650.72c-38.09,-384.9 27.56,-753.04 150.57,-1087.68 82.58,-224.65 246.82,-507.1 402.67,-689.49 157.18,-183.99 181.57,-209.53 392.93,-379.95 358.99,-289.43 877.39,-488.13 1357.37,-524.73 1424.92,-108.65 2607.91,949.27 2710.69,2243.75 50.59,637.05 -117.42,1190.74 -477.88,1684.68l-146.98 172.72c-650.13,740.33 -1810,1048.93 -2748.78,683.29 -366.87,-142.89 -513.49,-234.92 -790.31,-462.03 -31.98,-26.24 -51.88,-35.51 -81.09,-66.14 -110.98,-116.37 -268.76,-281.67 -354.56,-417.73 -230.22,-365.06 -367.58,-681.37 -414.63,-1156.69zm-628.91 -3624.84c91.2,-60.22 566.72,-249.72 689.76,-297 1437.99,-552.62 2668.44,-629.07 4168.06,-240.9 560.11,144.98 921.55,329.45 1422.74,532.22 -7.21,105.77 -398.87,969.01 -471.83,1136.24 -44.7,102.49 -128.3,268.92 -153.76,364.14 -55.03,-19.93 -83.68,-48.48 -137.43,-81.73l-387.4 -212.25c-164.36,-84.12 -397.25,-169.27 -587.13,-226.12 -1214.89,-363.8 -2549.3,-243.44 -3665.48,368.24 -84.53,46.32 -176.8,119.73 -257.24,152.96 -27.38,-151.88 -627.09,-1375.04 -620.29,-1495.8zm4549.13 1151.18c416.84,73.57 999.65,495.19 1075.58,502.77 172.06,17.19 198.01,-153.84 248.51,-272.65l472.01 -1087.54c45.79,-103.84 140.95,-278.98 58.04,-392.58 -46.26,-63.4 -250.81,-134.31 -343.58,-177.28 -286.6,-132.75 -855.52,-340.24 -1145,-411.07 -293.22,-71.74 -555.66,-143.14 -855.35,-185.57 -1037.3,-146.89 -1777.24,-61.23 -2766.34,205.12 -141.85,38.2 -262.73,90.07 -392.55,126.14 -128.3,35.66 -274.53,94.1 -381.28,139.97 -129.37,55.57 -259.82,108.32 -364.98,152.78 -115.09,48.67 -285.32,90.75 -308.71,215.93 -25.18,134.75 72.8,287.05 115.93,393.96l468.09 1089.67c51.03,117.11 126.21,286.3 294.4,177.14 215.72,-139.99 841.82,-487.39 1047.78,-493.19 -30.46,31.74 -107.65,74.93 -164.72,112.23 -159.29,104.09 -158.74,124.13 -275.71,216.6l-168.76 164.26c-153.11,156.32 -350.68,442.55 -450.85,654.6 -260.89,552.26 -330.41,1204.51 -141.38,1865.77 483.38,1690.79 2597.83,2507.07 4200.47,1341.75 260.3,-189.27 639.89,-617.26 762.63,-900.9 203.11,-469.34 308.79,-814.25 272.55,-1377.59 -50.63,-787.49 -508.78,-1571.79 -1179.81,-1986.79l-76.97 -73.53z"/>
   <path class="fil0" d="M3991.1 5820.91c119.13,32.82 324.79,138.42 451.58,192.93 164.09,70.56 197.36,-60.11 437.76,-132.96l-67.3 373.74c40.77,15.14 265.41,161.95 297.36,192.91l-326.94 33.15 -52.82 318.86 -309.75 -259.38c-71.54,-43.24 -391,-38.41 -503.95,-55.42 20.26,-31.75 219.87,-166.01 275.62,-208.15l39.79 -39.51c-34.73,-70.67 -77.91,-127.76 -118.2,-201.72l-123.15 -214.45zm1383.05 -987.69c34.22,-40.7 135.72,-183.43 179.7,-212.38l17.14 571.46 396.56 165.23 -352.99 157.76 148.42 693.51c-29.01,-19.03 -89.61,-94.18 -122.86,-126.73l-368.5 -358.56 -661.56 175.73c17.03,-43.45 134.58,-204.83 171.31,-259.75 46.72,-69.85 146.72,-203.36 172.04,-268.63 -79.89,-140.95 -300.93,-393.57 -349.08,-513.46l587.86 197.85 181.96 -222.03zm-2190.14 204.47c107.2,-82.14 306.28,-182.54 425.61,-250.02 169.61,-95.94 40.39,-399.77 144.79,-521.12l292.45 282.83 704.34 -238.54c-38.42,101.15 -375.16,457.9 -411.02,555.81 78.73,79.46 144.92,173.85 226.41,263.71l211.84 265.15 -772.3 -111.07c-65.99,47.41 -82.34,91.27 -133.57,139.45l-250.63 282.26c-33.7,34.84 -114.98,125.4 -144.12,135.54l62.36 -630.75c-76.4,-49.22 -314.93,-125.43 -356.16,-173.25zm1188.48 -1068.13c-356.78,43.12 -543.83,149.17 -796.29,331.63 -117.84,85.17 -262.79,258.33 -346.72,399.63 -165.21,278.12 -232.86,596.39 -187.26,928.77 102.95,750.27 832.82,1364.83 1720.68,1258.52 426.93,-51.11 819.24,-277.61 1061.35,-619.06 213.37,-300.89 317.61,-647.58 265.05,-1032.35 -104.17,-762.73 -835.23,-1373.65 -1716.81,-1267.14z"/>
   <path class="fil2" d="M6930.54 5584.09c-28.09,465.54 -255,1030.14 -551.12,1347.29 -518.68,555.48 -1135,856.59 -1953.25,819.84 -1250.76,-56.18 -2305.79,-1150.27 -2216.23,-2474.24 47.9,-708.14 417.13,-1257.25 768.89,-1559.95 37.26,-32.06 35.69,-38.64 77.22,-69.13 230.94,-169.44 343.3,-257.87 649.57,-377.39 784.06,-305.97 1640.16,-170.93 2305.23,321.86 613.88,454.85 966.92,1209.45 919.69,1991.72zm-4868.35 66.63c47.05,475.32 184.41,791.63 414.63,1156.69 85.8,136.06 243.58,301.36 354.56,417.73 29.21,30.63 49.11,39.9 81.09,66.14 276.82,227.11 423.44,319.14 790.31,462.03 938.78,365.64 2098.65,57.04 2748.78,-683.29l146.98 -172.72c360.46,-493.94 528.47,-1047.63 477.88,-1684.68 -102.78,-1294.48 -1285.77,-2352.4 -2710.69,-2243.75 -479.98,36.6 -998.38,235.3 -1357.37,524.73 -211.36,170.42 -235.75,195.96 -392.93,379.95 -155.85,182.39 -320.09,464.84 -402.67,689.49 -123.01,334.64 -188.66,702.78 -150.57,1087.68z"/>
   <path class="fil3" d="M1607.71 2107.71c164.14,-124.63 1159.56,-448.87 1343.91,-496.28 1487.72,-382.6 2857.84,-254.85 4251.87,349.14 84.48,36.6 257.29,95.55 326.97,145.27l-512.87 1197.96c-62.05,-23.09 -175.02,-96.83 -247.42,-136.79 -231.76,-127.97 -572.83,-256.19 -829.87,-328.23 -858.05,-240.53 -1866.25,-249.12 -2725.27,-4.68 -189.64,53.98 -400.92,124.44 -570.36,202.85 -94.27,43.6 -171.46,76.07 -262.65,124.09 -88.98,46.86 -176.66,109.36 -256.85,143.24l-517.46 -1196.57zm-174.43 -81.83c-6.8,120.76 592.91,1343.92 620.29,1495.8 80.44,-33.23 172.71,-106.64 257.24,-152.96 1116.18,-611.68 2450.59,-732.04 3665.48,-368.24 189.88,56.85 422.77,142 587.13,226.12l387.4 212.25c53.75,33.25 82.4,61.8 137.43,81.73 25.46,-95.22 109.06,-261.65 153.76,-364.14 72.96,-167.23 464.62,-1030.47 471.83,-1136.24 -501.19,-202.77 -862.63,-387.24 -1422.74,-532.22 -1499.62,-388.17 -2730.07,-311.72 -4168.06,240.9 -123.04,47.28 -598.56,236.78 -689.76,297z"/>
   <path class="fil2" d="M4372.49 3969.56c881.58,-106.51 1612.64,504.41 1716.81,1267.14 52.56,384.77 -51.68,731.46 -265.05,1032.35 -242.11,341.45 -634.42,567.95 -1061.35,619.06 -887.86,106.31 -1617.73,-508.25 -1720.68,-1258.52 -45.6,-332.38 22.05,-650.65 187.26,-928.77 83.93,-141.3 228.88,-314.46 346.72,-399.63 252.46,-182.46 439.51,-288.51 796.29,-331.63zm27.88 -153.42c-401.12,42.11 -723.46,186.81 -1000.02,442.55 -124.96,115.55 -191.1,190.9 -286.18,340.23 -51.05,80.16 -99.06,176.54 -135.9,276.14 -421.3,1138.77 523.53,2265.68 1734.18,2167.71 1421.72,-115.03 2125.95,-1830.6 949.17,-2847.34 -284.17,-245.53 -765.85,-431.28 -1261.25,-379.29z"/>
   <path class="fil4" d="M3184.01 5037.69c41.23,47.82 279.76,124.03 356.16,173.25l-62.36 630.75c29.14,-10.14 110.42,-100.7 144.12,-135.54l250.63 -282.26c51.23,-48.18 67.58,-92.04 133.57,-139.45l772.3 111.07 -211.84 -265.15c-81.49,-89.86 -147.68,-184.25 -226.41,-263.71 35.86,-97.91 372.6,-454.66 411.02,-555.81l-704.34 238.54 -292.45 -282.83c-104.4,121.35 24.82,425.18 -144.79,521.12 -119.33,67.48 -318.41,167.88 -425.61,250.02z"/>
   <path class="fil4" d="M5192.19 5055.25l-587.86 -197.85c48.15,119.89 269.19,372.51 349.08,513.46 -25.32,65.27 -125.32,198.78 -172.04,268.63 -36.73,54.92 -154.28,216.3 -171.31,259.75l661.56 -175.73 368.5 358.56c33.25,32.55 93.85,107.7 122.86,126.73l-148.42 -693.51 352.99 -157.76 -396.56 -165.23 -17.14 -571.46c-43.98,28.95 -145.48,171.68 -179.7,212.38l-181.96 222.03z"/>
   <path class="fil4" d="M3991.1 5820.91l123.15 214.45c40.29,73.96 83.47,131.05 118.2,201.72l-39.79 39.51c-55.75,42.14 -255.36,176.4 -275.62,208.15 112.95,17.01 432.41,12.18 503.95,55.42l309.75 259.38 52.82 -318.86 326.94 -33.15c-31.95,-30.96 -256.59,-177.77 -297.36,-192.91l67.3 -373.74c-240.4,72.85 -273.67,203.52 -437.76,132.96 -126.79,-54.51 -332.45,-160.11 -451.58,-192.93z"/>
   <path class="fil2" d="M5383.51 1814.79c107.81,-11.95 264.97,-0.11 254.11,144.56 -11.11,148.13 -155.34,96.55 -273.56,75.72l19.45 -220.28zm-166.69 690.64c138.28,37.64 111.74,-69.16 133.32,-321.74 88.42,5.89 202.88,9.27 226.76,84.75 23.5,74.34 -18.97,226.23 25.4,280.42 23.34,28.51 70.3,41.98 103.32,4.93 28.16,-31.61 14.02,-97.4 13.31,-141.21 -0.86,-53.07 9.56,-103.98 1.78,-156.11 -4.45,-29.92 -6.54,-33.29 -20.21,-58.96 -16.57,-31.15 -2.07,-2.09 -15.55,-25.31l-14.45 -26.38c104.69,-51.22 140.33,-255.02 72.93,-364.79 -60.68,-98.84 -258.93,-118.34 -393.54,-125.69 -97.93,-5.33 -91.39,60.1 -99.37,144.59 -14.13,149.77 -77.48,614.2 -33.7,705.5z"/>
   <path class="fil2" d="M2304.86 2723.72c-77.7,128.47 43.85,223.93 181.01,218.41 293.87,-11.87 373.95,-382.6 216.63,-518.88 -83.99,-72.76 -260.39,-7.27 -393.19,-35.25 -26.61,-88.98 -21.91,-153.78 73.59,-187.17 133.6,-46.7 98.29,68.08 228.86,41.37 131.66,-335.71 -635.07,-231.29 -410.41,242.79 89.88,189.65 378.85,-2.99 441.13,119.98 43.95,86.75 -45.11,161.44 -106.95,179.55 -143.16,41.97 -114.12,-100.03 -230.67,-60.8z"/>
   <path class="fil2" d="M6584.88 2658.9c-233.59,78.57 -233.57,-165.15 -283.11,-219.31 -147.26,-1.62 -107.59,213.05 37.47,318.25 115.28,83.6 273.43,97.62 355.71,-28.74 92.05,-141.41 51.97,-275.23 -57.99,-375.61 -131.9,-120.42 -255.46,-128.83 -183.89,-292.45 261.65,-58.57 155.21,203.16 312.17,190.22 142.8,-219.79 -321.74,-518.87 -446.25,-218.04 -60.11,145.26 -20.44,249.65 94.19,344.17 152.97,126.11 215.09,128.93 171.7,281.51z"/>
   <path class="fil3" d="M4430.7 1818.47c0.9,-5.62 3.79,-6.69 5.26,-9.49l87.75 346.57 -178.26 8.83 85.25 -345.91zm-251.76 670.26c120,30.15 111.19,-91.49 131.87,-183.12l254.91 -8.91c27.86,54.58 48.15,250.65 146.15,169.62 52.76,-43.63 -9.72,-190.69 -29.03,-252.14 -53.72,-170.97 -104.29,-346.9 -157.64,-521.28 -40.54,-132.61 -161.54,-94.84 -189.08,-17.96l-138.07 543.46c-26.75,104.2 -65.88,185.95 -19.11,270.33z"/>
   <path class="fil3" d="M3339.61 1919.43c9.19,125.65 32.96,262.37 48.89,388.1 29.39,232.11 10.41,322.09 140.45,292.03 66.44,-140.4 -67.19,-527.34 -53.26,-716.13 152.06,-26.03 208.79,-13.44 173.12,-167.6 -83.28,-19.97 -317.32,50.24 -416.34,70.31 -63.26,12.83 -155.53,48.78 -97.49,137.67 32.09,49.14 144.74,0.11 204.63,-4.38z"/>
   <path class="fil2" d="M6276.81 4220.18c-7.33,22.58 -327.05,587.91 0.58,369.73l225.01 -148.24c45.16,-29.98 109.41,-49.26 61.73,-110.37 -50.12,-39.27 -116.15,24.02 -158.88,54.02 -47.14,33.09 -97.45,73.68 -152.05,94.49 31.12,-120.88 177.31,-288.23 144.57,-408.13 -81.04,-33.63 -292.84,134.5 -404.77,208.4 -93.21,61.56 -44.01,151.23 81.25,67.32 65.8,-44.05 132.42,-90.86 202.56,-127.22z"/>
   <path class="fil2" d="M5140.71 3421.45c98.47,-49.7 190.14,27.7 198.42,110.74 31.38,314.44 -414.93,279.88 -277.85,-24.66 21.8,-48.4 36.82,-64.58 79.43,-86.08zm-16.64 -95.42c-315.64,88.73 -221.04,605.8 131.51,510.32 305.23,-82.68 220.59,-609.29 -131.51,-510.32z"/>
   <path class="fil2" d="M2743.25 4254.4c32.08,-45.6 75.13,-121.74 145.85,-72.33 74.61,52.13 -44.06,162.72 -68.71,198.59 -35.14,-19.61 -79.48,-42.43 -107.88,-75.93l30.74 -50.33zm152.16 190.01c15.9,-50.92 65.31,-117.53 111.22,-139.25 80.5,15.23 208.78,145.17 213.45,-17.16 -90.02,-54.9 -150.38,-88.51 -229.32,-71.65 0.6,-79.61 -28.67,-115.8 -88.9,-140.21 -132.01,-53.49 -178.44,71.07 -264.74,178.87 -52.03,64.98 -56.2,89.59 14.52,137.95 76.09,52 302.84,228.28 351.45,214.52 93.39,-26.46 -4.88,-125.42 -107.68,-163.07z"/>
   <path class="fil2" d="M5949.59 3918.25c-101.45,221.38 -379.42,132.37 -299.77,-61.21 24.79,-60.24 105.87,-149.99 194.15,-139.82 101.17,11.63 149.11,106.12 105.62,201.03zm-209.78 -283.6c-188.33,59.48 -306.29,337.12 -84.42,473.1 223.05,136.68 440.87,-111.6 407.53,-288.85 -21.85,-116.13 -167.65,-233.35 -323.11,-184.25z"/>
   <path class="fil2" d="M6352.77 6063.85c-80.27,-217.66 282.71,-232.94 342.37,-74.82 87.45,231.78 -286.96,225.03 -342.37,74.82zm57.77 -266.61c-159.84,61.21 -190.88,235.82 -132.42,340.62 48.65,87.23 215.9,173.67 364,123.13 102.91,-35.13 211.47,-193.07 131.29,-339.72 -51.09,-93.4 -220.2,-178.66 -362.87,-124.03z"/>
   <path class="fil2" d="M3952.93 7488.26c-133.39,-34.58 -226.47,-68.04 -158.32,-235.86 51.13,-125.86 122.05,-128.83 265.1,-67.32l-106.78 303.18zm67.79 96.27c35.51,-74.26 155.64,-373.32 145.08,-455.09 -207.08,-81.99 -378.63,-140.09 -471.45,89.24 -44.19,109.16 -37.78,214.05 42.01,274.24 52.63,39.73 209.86,97.15 284.36,91.61z"/>
   <path class="fil2" d="M5089.91 7183.24l30.96 119.28c-78.89,42.97 -269.7,29.19 -223.79,122.59 61.73,33.22 169.11,-26.55 241.8,-28.19l28.55 92.34c-87.39,54.8 -276.28,18.05 -249.89,130.17 65.17,22.1 293.26,-33.22 348.24,-69.87 23.37,-74.52 -32.11,-215.38 -52.7,-294.72 -39.57,-152.51 -9.18,-191.02 -181.42,-149.44 -51.16,12.36 -272.2,31.26 -229.43,108.42 32.99,59.51 232.43,-21.12 287.68,-30.58z"/>
   <path class="fil2" d="M3525.61 6941.97c-13.33,31.92 -49.25,83.47 -79.2,104.97 -36.09,-12.78 -69.81,-43.22 -103.13,-67.05 -40.89,-29.21 -71.92,-71.55 -126.14,-36.5 -45.14,58.22 177.99,166.81 178.18,166.89 -20.28,49.65 -3.67,6.83 -27.08,48.56 -13.42,23.94 -12.9,21.23 -22.47,46.06 -97.86,-33 -167.65,-127.8 -220.11,-130.1 -86.09,-3.79 70.21,-20.4 -33.14,6.72 -2.81,0.74 -7.6,2.59 -10.97,4.71 -24.99,72.72 56.29,86.76 115.54,132.77 48.49,37.63 105.12,88.25 173.25,95.64 29.18,-34.62 47.77,-51.55 71.33,-82.96 31.01,-41.33 39.02,-58.72 73.16,-99.83 51.94,-62.54 119.56,-138.93 128.3,-201.78 -28.16,-29.93 -241.6,-197.83 -279.06,-199.13 -30.14,-1.03 -109.14,29.63 20.54,114.12 47.44,30.91 93.55,73.6 141,96.91z"/>
   <path class="fil2" d="M3237.59 3788.06c39,8.94 155.74,84.67 180.88,116.87 -22.65,30.27 -75.43,66.43 -105.33,76.75l-75.55 -193.62zm-103.92 -56.38c5.49,70.64 57.7,202.37 81.58,272.35 25.77,75.51 50.08,247.99 137.87,193.61 29.92,-47.43 7.62,-72.06 -8.14,-119.47 33.61,-44.15 106.86,-91.42 154.74,-121.81 56.62,26.72 75.81,69.73 134.83,30.52 63.65,-65.26 -90.62,-118.68 -216.82,-199.37 -44.97,-28.75 -87.51,-56 -129.89,-83.58 -76.59,-49.81 -97.81,-35.82 -154.17,27.75z"/>
   <path class="fil2" d="M4738.78 3572.98c-102.06,-20.25 -66.01,24.9 -119.26,66.09 -122.65,94.9 -296.45,-71.37 -204.26,-256.41 20.04,-40.23 60.65,-66.41 123.8,-64.96 85.98,1.97 76.27,51.61 116.76,73.76 105.74,57.83 139.39,-101.89 -39.26,-151.86 -251.67,-70.41 -399.58,178.04 -301.86,383.49 107.01,225.07 478.26,126.21 424.08,-50.11z"/>
   <path class="fil2" d="M6775.17 5490.64c-143.88,74.99 -140.32,-16.02 -142.55,-151.48l155.37 -5.7 -12.82 157.18zm-417.08 -167.54c44.93,23.77 119.33,14.36 183.66,15.54 2.89,167.82 -1.32,312.23 209.03,272.55 155.07,-29.24 136.23,-220.8 112.38,-364.79 -84.79,-22.67 -201.44,-9.84 -298.34,-7.81 -90.93,1.91 -240.32,-31.52 -206.73,84.51z"/>
   <path class="fil2" d="M2778.16 6663.53c76.74,-141.69 161.07,-26.62 202.99,56.84 -33.1,13.85 -33.92,17.93 -64,39.76 -33.34,24.22 -24.86,22.41 -62.19,37.85 -29.4,-67.52 -55.28,-49.2 -76.8,-134.45zm455.55 -79.33c-28.47,-22.57 4.88,-22.41 -49.99,-12.75 -21.37,3.76 -28.55,13.39 -44.13,24.81 -27.42,20.08 -49.74,40.37 -79.65,56.6 -63.35,-62.47 -138.26,-223.2 -282.22,-138.31 -131.54,77.55 -114.35,171.72 -25.2,282.96 137.22,171.22 76.99,148.87 399.5,-82.2 48.83,-34.97 128.87,-68.56 81.69,-131.11z"/>
   <path class="fil0" d="M6352.77 6063.85c55.41,150.21 429.82,156.96 342.37,-74.82 -59.66,-158.12 -422.64,-142.84 -342.37,74.82z"/>
   <path class="fil0" d="M5140.71 3421.45c-42.61,21.5 -57.63,37.68 -79.43,86.08 -137.08,304.54 309.23,339.1 277.85,24.66 -8.28,-83.04 -99.95,-160.44 -198.42,-110.74z"/>
   <path class="fil0" d="M5949.59 3918.25c43.49,-94.91 -4.45,-189.4 -105.62,-201.03 -88.28,-10.17 -169.36,79.58 -194.15,139.82 -79.65,193.58 198.32,282.59 299.77,61.21z"/>
   <path class="fil2" d="M6149.8 6425.46c123.14,58.7 279.75,216.69 374.62,209.01 42.31,-66.8 28.91,-73.66 -31.76,-111.31 -369.22,-229.07 -324.5,-287.54 -472.81,-71.46 -19.97,29.1 -78.07,91.54 -65.82,129.08 23.78,72.9 82.15,8.74 110.05,-31.13 24.53,-35.05 68.25,-90.44 85.72,-124.19z"/>
   <path class="fil0" d="M3952.93 7488.26l106.78 -303.18c-143.05,-61.51 -213.97,-58.54 -265.1,67.32 -68.15,167.82 24.93,201.28 158.32,235.86z"/>
   <path class="fil5" d="M5364.06 2035.07c118.22,20.83 262.45,72.41 273.56,-75.72 10.86,-144.67 -146.3,-156.51 -254.11,-144.56l-19.45 220.28z"/>
   <path class="fil2" d="M5834.17 6661.39c-109.93,48.02 119.06,216.63 210.54,308.76 40.26,40.56 66.99,99.63 126.04,73.25 99.45,-44.45 -84.69,-185.07 -117.35,-215.12 -52.34,-48.12 -159.11,-193.15 -219.23,-166.89z"/>
   <path class="fil6" d="M4345.45 2164.38l178.26 -8.83 -87.75 -346.57c-1.47,2.8 -4.36,3.87 -5.26,9.49l-85.25 345.91z"/>
   <path class="fil7" d="M2712.51 4304.73c28.4,33.5 72.74,56.32 107.88,75.93 24.65,-35.87 143.32,-146.46 68.71,-198.59 -70.72,-49.41 -113.77,26.73 -145.85,72.33l-30.74 50.33z"/>
   <path class="fil2" d="M4454.3 7516.82c170.1,23.37 163.38,-141.07 79.12,-169.43 -52.05,-17.53 -100.11,4.91 -115.33,47.88 -20.27,57.26 11.82,88.59 36.21,121.55z"/>
   <path class="fil8" d="M6432.67 4807.38c-23.45,137.98 46.94,157.84 152.08,117.21 35.9,-96.37 13.1,-172.11 -117.31,-152.77l-34.77 35.56z"/>
   <path class="fil7" d="M6775.17 5490.64l12.82 -157.18 -155.37 5.7c2.23,135.46 -1.33,226.47 142.55,151.48z"/>
   <path class="fil9" d="M2778.16 6663.53c21.52,85.25 47.4,66.93 76.8,134.45 37.33,-15.44 28.85,-13.63 62.19,-37.85 30.08,-21.83 30.9,-25.91 64,-39.76 -41.92,-83.46 -126.25,-198.53 -202.99,-56.84z"/>
   <path class="fil2" d="M2994.7 2545.62c-89.39,52.21 -31.34,231.49 66.66,175.83 84.32,-47.88 26.02,-229.98 -66.66,-175.83z"/>
   <path class="fil2" d="M6943.37 2986.2c28.1,-47.83 55.09,-57.69 34.4,-131.18 -12.5,-44.39 -49.62,-74.65 -99.77,-52.52 -47.66,21.03 -100.04,196.72 65.37,183.7z"/>
   <path class="fil10" d="M4983.34 2304.37c-161.39,-19.83 -129.34,165.07 -66.05,185.29 95.29,30.43 129.18,-105.17 66.05,-185.29z"/>
   <path class="fil2" d="M3969.36 2335.57c-152.65,4.47 -110.56,178.87 -38.58,192.45 48.76,9.19 80.86,-37.16 86.82,-77.94 8.42,-57.58 -20.22,-82.64 -48.24,-114.51z"/>
   <path class="fil2" d="M5922.56 2638.2c142.36,21.72 141.96,-155.32 64.13,-182.61 -96.41,-33.8 -129.12,103.53 -64.13,182.61z"/>
   <path class="fil7" d="M3237.59 3788.06l75.55 193.62c29.9,-10.32 82.68,-46.48 105.33,-76.75 -25.14,-32.2 -141.88,-107.93 -180.88,-116.87z"/>
   <path class="fil2" d="M4055.09 3624.35c0,0 0,0 0,0z"/>
   <path class="fil2" d="M5449.86 7148.29c0,0 0,0 0,0z"/>
   <path class="fil2" d="M4096.83 3604.89c-103.54,10.27 -55.94,43 -94.93,97.88 -89.8,126.42 -304.4,17.8 -269.92,-186.04 7.49,-44.31 38.75,-81.15 99.6,-98.11 82.85,-23.09 87.97,27.24 133.14,36.67 117.98,24.63 103.8,-137.98 -81.66,-133.91 -261.27,5.71 -330.65,286.4 -177.48,454.63 167.77,184.28 494.3,-18.14 391.25,-171.12z"/>
   <path class="fil2" d="M5385.78 7137.07c102.94,-15.14 53.85,-45.59 90.21,-102.25 83.75,-130.51 303.22,-32.12 278.38,173.12 -5.39,44.62 -34.88,82.89 -94.86,102.69 -81.67,26.97 -89.16,-23.06 -134.73,-30.36 -119.01,-19.04 -97.18,142.72 87.89,129.92 260.71,-18.01 316.79,-301.66 155.87,-462.48 -176.26,-176.18 -492.9,41.39 -382.76,189.36z"/>
  </g>
 </g>
</svg>
